<svg width="24.000000000000004" height="24.000000000000004" xmlns="http://www.w3.org/2000/svg" data-name="Layer 1">

 <g>
  <title>Layer 1</title>
  <path id="svg_1" stroke-width="1.91px" stroke-miterlimit="10" stroke="#ffffff" fill="#000000" d="m10.81,12.69a5.72,5.72 0 0 1 -7.9,4.57a5.9,5.9 0 0 1 0.72,-2.18a5.7,5.7 0 0 1 7.18,-2.39z" class="cls-1"/>
  <path id="svg_2" stroke-width="1.91px" stroke-miterlimit="10" stroke="#ffffff" fill="#000000" d="m18.86,6.29a5.73,5.73 0 0 1 2.23,0.45a5.9,5.9 0 0 1 -0.72,2.18a5.7,5.7 0 0 1 -7.18,2.39a5.7,5.7 0 0 1 5.67,-5.02z" class="cls-1"/>
  <path id="svg_3" stroke-width="1.91px" stroke-miterlimit="10" stroke="#ffffff" fill="#000000" d="m12,13.37a5.71,5.71 0 0 1 1.52,7.43a5.65,5.65 0 0 1 -1.52,1.7a5.65,5.65 0 0 1 -1.52,-1.7a5.71,5.71 0 0 1 1.52,-7.43z" class="cls-1"/>
  <path id="svg_4" stroke-width="1.91px" stroke-miterlimit="10" stroke="#ffffff" fill="#000000" d="m20.37,15.08a5.9,5.9 0 0 1 0.72,2.18a5.72,5.72 0 0 1 -7.9,-4.57a5.7,5.7 0 0 1 7.18,2.39z" class="cls-1"/>
  <path id="svg_5" stroke-width="1.91px" stroke-miterlimit="10" stroke="#ffffff" fill="#000000" d="m5.14,6.29a5.7,5.7 0 0 1 5.67,5a5.7,5.7 0 0 1 -7.18,-2.37a5.9,5.9 0 0 1 -0.72,-2.18a5.73,5.73 0 0 1 2.23,-0.45z" class="cls-1"/>
  <path id="svg_6" stroke-width="1.91px" stroke-miterlimit="10" stroke="#ffffff" fill="#000000" d="m12,1.5a5.65,5.65 0 0 1 1.52,1.7a5.71,5.71 0 0 1 -1.52,7.43a5.71,5.71 0 0 1 -1.52,-7.43a5.65,5.65 0 0 1 1.52,-1.7z" class="cls-1"/>
  <text transform="matrix(1.17281 0 0 1.05283 -1.24458 -0.338157)" stroke="#020202" font-weight="normal" xml:space="preserve" text-anchor="start" font-family="'Asap'" font-size="24" id="svg_7" y="20.17819" x="4.09094" stroke-width="0" fill="#bc1619">X</text>
 </g>
</svg>